# xmcd CD database file
#
# Track frame offsets:
#	150
#	93951
#	106044
#	124396
#	147359
#
# Disc length: 2150 seconds
#
# Revision: 1
# Processed by: cddbd v1.5.2PL0 Copyright (c) Steve Scherf et al.
# Submitted via: CDex 1.70beta2
#
DISCID=3d086405
DTITLE=Madec-Stéphan - Diafonik
DYEAR=2009
DGENRE=New Age
TTITLE0=Diafonik
TTITLE1=René er Gall (Job Le Corre)
TTITLE2=Boked eured (Catherine Duro)
TTITLE3=Me zo un den yaouank
TTITLE4=Ty Liziza (Tanon Goadec)
EXTD=YEAR: 2009
EXTT0=
EXTT1=
EXTT2=
EXTT3=
EXTT4=
PLAYORDER=
